<?xml version="1.0" standalone="no"?><svg xmlns="http://www.w3.org/2000/svg" viewBox="0 0 1440 320"><path fill="#00cba9" fill-opacity="1" d="M0,256L40,213.3C80,171,160,85,240,80C320,75,400,149,480,149.3C560,149,640,75,720,69.3C800,64,880,128,960,149.3C1040,171,1120,149,1200,117.3C1280,85,1360,43,1400,21.3L1440,0L1440,320L1400,320C1360,320,1280,320,1200,320C1120,320,1040,320,960,320C880,320,800,320,720,320C640,320,560,320,480,320C400,320,320,320,240,320C160,320,80,320,40,320L0,320Z"></path></svg>